<svg id="Pantalla_3" data-name="Pantalla 3" xmlns="http://www.w3.org/2000/svg" viewBox="0 0 78.55 59.81"><defs><style>.cls-1{fill:#fff;}</style></defs><title>Agregar-al-carro</title><path d="M77.7,9.81H68a.83.83,0,0,0-.78.54l-1.63,4.11H11.81a.85.85,0,0,0-.69.33.92.92,0,0,0-.12.77l7.58,23.87a.86.86,0,0,0,.81.58l37,.1,6.17,6.17H19.29a.84.84,0,0,0-.85.85.86.86,0,0,0,.85.85h1.44a6.77,6.77,0,1,0,9,0H52.9a6.77,6.77,0,1,0,9,0h2.76a.86.86,0,0,0,.6-1.46l-7.46-7.46L67,15.61s0,0,0,0l1.59-4.05H77.7a.85.85,0,0,0,0-1.7ZM30.28,53.05A5.07,5.07,0,1,1,25.21,48,5.07,5.07,0,0,1,30.28,53.05Zm32.16,0A5.07,5.07,0,1,1,57.37,48,5.07,5.07,0,0,1,62.44,53.05ZM47.5,16.15l-.89,5.68H31l-1-5.68ZM13,16.15H28.26l1,5.68H14.76Zm2.34,7.38H29.58l1.29,7.08H17.56ZM20,38.33l-1.91-6H31.18l1.08,6Zm24,.05-10,0-1.1-6h12ZM32.6,30.61l-1.29-7.08h15l-1.11,7.08Zm23.59,7.8H45.71l.95-6.09H58.59Zm3.06-7.8H46.93l1.12-7.08h14Zm3.48-8.78H48.32l.9-5.68H65Z"/><path class="cls-1" d="M15.31,0a15.31,15.31,0,1,0,15.3,15.3A15.3,15.3,0,0,0,15.31,0Z"/><polygon points="17.94 17.36 17.94 25.99 12.68 25.99 12.68 17.36 4.05 17.36 4.05 12.1 12.68 12.1 12.68 3.47 17.94 3.47 17.94 12.1 26.57 12.1 26.57 17.36 17.94 17.36"/></svg>