<svg id="Pantalla_3" data-name="Pantalla 3" xmlns="http://www.w3.org/2000/svg" viewBox="0 0 69.01 51.42"><defs><style>.cls-1{fill:#0a0a0a;stroke:#0a0a0a;stroke-miterlimit:10;stroke-width:1.42px;}</style></defs><title>Carrito</title><path class="cls-1" d="M67.45.71H57.79a.82.82,0,0,0-.78.54l-1.63,4.1H1.56a.86.86,0,0,0-.69.34.88.88,0,0,0-.12.77L8.33,30.33a.86.86,0,0,0,.81.58l37,.1,6.17,6.17H9a.84.84,0,0,0-.85.85.85.85,0,0,0,.85.84h1.44a6.77,6.77,0,1,0,9,0H42.65a6.77,6.77,0,1,0,9,0h2.76a.83.83,0,0,0,.78-.52.82.82,0,0,0-.19-.93L47.49,30,56.75,6.51s0,0,0,0L58.36,2.4h9.09a.84.84,0,0,0,.85-.84A.86.86,0,0,0,67.45.71ZM20,43.94A5.07,5.07,0,1,1,15,38.87,5.07,5.07,0,0,1,20,43.94Zm32.16,0a5.07,5.07,0,1,1-5.07-5.07A5.07,5.07,0,0,1,52.19,43.94ZM37.25,7.05l-.9,5.68H20.76l-1-5.68Zm-34.53,0H18l1,5.68H4.51Zm2.34,7.38H19.33l1.29,7.08H7.31Zm4.69,14.8-1.91-6H20.93L22,29.26Zm24,.05-10,0-1.1-6.05h12ZM22.35,21.51l-1.29-7.08h15L35,21.51Zm23.58,7.8-10.47,0,.95-6.08H48.34ZM49,21.51H36.68l1.12-7.08h14Zm3.48-8.78H38.07L39,7.05H54.72Z"/></svg>