<?xml version="1.0" encoding="utf-8"?>
<!-- Generator: Adobe Illustrator 23.0.0, SVG Export Plug-In . SVG Version: 6.00 Build 0)  -->
<svg version="1.1" id="Pantalla_3" xmlns="http://www.w3.org/2000/svg" xmlns:xlink="http://www.w3.org/1999/xlink" x="0px" y="0px"
	 viewBox="0 0 126.6 126.6" style="enable-background:new 0 0 126.6 126.6;" xml:space="preserve">
<style type="text/css">
	.st0{fill:#000000;}
	.st1{fill:#000000;}
	.st2{fill:#FFFFFF;}
</style>
<title>Categoria</title>
<path class="st0" d="M16.8,82.1v-0.3C16.8,81.9,16.8,82,16.8,82.1z"/>
<circle class="st1" cx="63.3" cy="63.3" r="63.3"/>
<path class="st2" d="M96.2,49c0.8,0,1.5,0,2.3,0c1.6,0.1,2.6,0.1,2.6-2.1c0-2.4-1.5-1.7-2.7-2s-3.9,1.4-3.8-1.3
	c0.1-2.4,2.6-1.2,3.9-1.1c2.6,0.2,3.1-1.2,2.5-3.1s-2.2-0.8-3.3-0.8c-2.2,0-3.8-0.2-3.3-3c0.5-2.7-0.7-3.8-3.4-3.3s-3.3-0.7-2.9-3
	c0.1-0.5,0-1.1,0-1.6c0.2-1.5-0.3-2-2-2s-2,0.7-1.9,2.1c0.1,1.1,0,2.2,0,3.2s-0.3,1.4-1.3,1.3s-1.3-0.5-1.3-1.4c0-1.2-0.1-2.4,0-3.6
	c0.1-1.6-0.7-1.7-1.9-1.7s-1.7,0.4-1.6,1.7c0.1,1.6,0.3,3.3-0.7,4.7h-2.4c-0.1-1.2-0.1-2.4,0-3.5c0.3-2.6-0.9-3.5-3.3-2.8
	c-1.2,1.6-0.5,3.4-0.5,5.2c0,0.9-0.3,1.4-1.3,1.4S68.5,32,68.6,31c0-1.3,0-2.6,0.1-3.9s-0.7-1.5-1.8-1.5s-2,0-1.9,1.4
	c0,0.9,0,1.7,0,2.6c0.4,2.5-0.8,3-3,2.5c-0.3-2.1,1-4.4-0.7-6.4c-2.5-0.6-3.5,0.5-3.3,3c0,0.7,0.1,1.5,0,2.2c0,0.7,0,1.3-0.9,1.4
	s-1.5-0.3-1.5-1.3c0-1.3-0.1-2.6,0-3.9s-0.4-1.7-1.6-1.6s-2.3-0.2-2.2,1.5c-0.1,0.9-0.1,1.7,0,2.6c0.3,2.2-0.6,3-2.7,2.4
	c0-1.4-0.1-2.8-0.1-4.2c0-1.2,0.2-2.3-1.7-2.3s-1.9,0.9-2.1,2.3s1.5,4.1-1,4.2c-3.1,0.2-1.5-2.8-1.4-4.2c0.1-2.6-1.4-2.6-3-2.2
	s-0.8,2-0.8,3c0.2,2.6-0.2,4.2-3.4,3.5c-2.3-0.5-3.2,0.5-2.8,2.8c0.5,2.9-0.7,4-3.5,3.4c-0.5-0.1-1.1,0-1.6,0
	c-1.4-0.1-2,0.4-1.9,1.8s0.4,2.3,2,2.1c1-0.1,1.9-0.1,2.9,0c0.9,0.1,2.1-0.5,2.1,1.2S31.7,45,30.7,45l-4.5,0.2
	c-1.2,3.4-1,3.8,2.1,3.9c0.9,0,1.7,0,2.6,0s1.8-0.2,1.8,1.2s-1,1.4-2,1.3s-1.9-0.1-2.9-0.1c-1.2,0-2.3-0.1-2.3,1.8
	c0,1.7,0.6,2.3,2.3,2.2s3.2,0,4.9,0.1c0.5,2.2-0.6,2.8-2.5,2.6c-0.6,0-1.3,0-1.9-0.1c-1.6-0.2-2.6,0.2-2.6,2.2
	c0,2.3,1.5,1.6,2.7,1.6c0.9,0,1.7-0.1,2.6-0.1c0.7,0,1.6-0.3,1.8,0.8s0.1,2-1.3,2.1c-1.2,0-2.4-0.1-3.5-0.1
	c-1.4-0.1-2.2,0.3-2.2,1.9s0.5,2.2,2.1,2c1.1-0.1,2.1,0,3.2,0c0.9,0,1.7,0,1.8,1.3S32,71.1,31.1,71s-1.9,0.1-2.9,0.1
	c-1.5-0.3-2.6-0.3-2.6,1.9c0,1.9,0.9,2.1,2.4,2c1.2-0.1,2.3-0.1,3.5-0.2c1.2-0.1,1.3,0.6,1.3,1.6s-0.5,1.2-1.3,1.3
	c-1.2,0-2.3-0.2-3.5-0.1c-1,0-2.5-0.6-2.3,1.6c0.1,1.5,0.5,2.4,2.2,2.3s3.2,0.1,4.8,0.1c0.4,1.9-0.1,2.9-2.3,2.5
	c-1.1-0.2-2.2,0-3.2,0c-1.3-0.1-1.4,0.7-1.4,1.6s-0.3,2.1,1.3,2.2c0.9,0.1,1.7,0.1,2.6,0c2.5-0.3,3.7,0.5,3.1,3.1s0.8,3.4,3.2,3
	c2.6-0.5,3.2,0.8,3,3c-0.1,0.6,0,1.3,0,1.9c-0.1,1.3,0.1,2.2,1.8,2.1s2-0.8,1.8-2.2c-0.1-1.1,0-2.2,0-3.2c0-0.9,0-1.7,1.3-1.8
	s1.4,0.7,1.4,1.6s0,2,0,2.9c0,1.3-0.3,2.5,1.8,2.6c2.4,0.1,1.9-1.5,1.9-2.8c0-1,0-1.9,0-2.9c-0.1-1.1,0.4-1.5,1.5-1.4
	s1.5,0.5,1.4,1.6s0,2.4-0.1,3.6c-0.1,1.6,0.7,1.9,2.1,2c1.7,0,1.7-0.8,1.7-2s0-2.6,0-3.9c0-1,0.6-1.2,1.5-1.2s1,0.6,1,1.3
	c0.1,1.2,0.1,2.4,0,3.6c-0.2,1.7,0.4,2.2,2.1,2.3s1.9-0.9,1.8-2.2c-0.1-1.1,0-2.2,0-3.2s0-1.7,1.3-1.7s1.6,0.7,1.6,1.8
	s0.1,2.2,0,3.2c-0.1,1.5,0.3,2.1,2,2.1s1.8-0.7,1.7-1.9c-0.1-0.9-0.1-1.7,0-2.6c0.1-1.1-0.6-2.6,1.4-2.5s1.1,1.5,1.2,2.4
	c0.1,1,0.1,1.9,0,2.9c-0.1,1.5,0.7,1.7,2,1.8c1.5,0.1,1.8-0.6,1.8-1.9s0-2.4,0-3.6c0-1,0.2-1.7,1.4-1.7s1.8,0.5,1.7,1.8
	c-0.1,1.1,0,2.2,0,3.3c-0.1,1.4,0.1,2.1,1.9,2.1s1.9-0.9,1.8-2.2c-0.1-0.8-0.1-1.5,0-2.3c0.2-1-0.7-2.7,1.4-2.6c1.8,0,1,1.5,1.2,2.5
	c0.1,0.9,0.1,1.7,0,2.6c-0.2,1.6,0.5,2,2,2c3.1,0,1.5-2.2,1.8-3.5c0.4-1.5-0.9-4.1,2.4-3.6s4.5-0.8,3.9-4c-0.3-1.6,0.3-2.4,2.1-2.1
	c0.7,0.1,1.5,0,2.3,0c1.6,0.2,2.3-0.2,2.3-2s-1.2-1.5-2.3-1.8c-1.5-0.4-4.3,1.5-4.2-1.4c0-2.6,2.7-0.9,4.2-1.2s2.4-0.2,2.4-2.1
	s-1.1-1.6-2.3-1.8c-1.5-0.3-4.3,1.5-4.3-1.4c0-2.6,2.7-0.9,4.2-1.2s2.4,0,2.4-2s-0.8-1.9-2.3-2.1s-4.2,1.4-4.2-1
	c-0.1-2.8,2.8-1.2,4.3-1.3s2.2-0.4,2.2-2.2s-0.8-1.9-2.2-1.8c-1.1,0.1-2.2,0-3.2,0s-1.3-0.4-1.3-1.4s0.2-1.5,1.2-1.4s2.4-0.1,3.6,0
	c1.4,0.1,1.9-0.4,1.9-1.8s-0.3-2-1.8-1.9c-1.2,0.1-2.4,0-3.6,0c-0.9,0-1.4-0.3-1.3-1.3s0.2-1.5,1.3-1.4s2.4-0.1,3.6,0
	c1.4,0.1,1.9-0.5,1.9-1.8s-0.3-2.1-1.8-1.9c-1,0.1-1.9,0.1-2.9,0c-0.9,0-1.9,0.2-2-1.3S95.2,49,96.2,49z M72.7,74.5
	c-6.1-0.1-12.1-0.1-18.2,0c-1.8,0-2.1-0.6-2.1-2.3c0-6.6,0-13.2-0.1-19.8l22-0.2c0.1,6.8,0.1,13.6,0.2,20.4
	C74.5,74.2,74,74.5,72.7,74.5z"/>
</svg>
