<?xml version="1.0" encoding="utf-8"?>
<!-- Generator: Adobe Illustrator 23.0.0, SVG Export Plug-In . SVG Version: 6.00 Build 0)  -->
<svg version="1.1" id="Pantalla_3" xmlns="http://www.w3.org/2000/svg" xmlns:xlink="http://www.w3.org/1999/xlink" x="0px" y="0px"
	 viewBox="0 0 126.6 126.6" style="enable-background:new 0 0 126.6 126.6;" xml:space="preserve">
<style type="text/css">
	.st0{fill:#000000;}
	.st1{fill:#FFFFFF;}
</style>
<title>Categoria</title>
<circle class="st0" cx="63.3" cy="63.3" r="63.3"/>
<path class="st1" d="M25,39.4c0-0.7-0.6-1.3-1.3-1.3c0,0,0,0,0,0H13.5c-0.7,0.1-1.3,0.7-1.2,1.4c0.1,0.6,0.6,1.2,1.2,1.2h8.9v54.5
	c-0.1,0.7,0.5,1.4,1.2,1.4c0.7,0.1,1.4-0.5,1.4-1.2c0-0.1,0-0.2,0-0.2V77.8h11.7v16.7c-0.1,1.7,1.3,3.2,3,3.2c0,0,0.1,0,0.1,0h0.7
	v-4.9h1.6v4.9h3.1v-4.9h1.6v4.9H50v-4.9h1.6v4.9h3.1v-4.9h1.6v4.9h3.1v-4.9H61v4.9h3.1v-4.9h1.6v4.9h3.1v-4.9h1.6v4.9h3.1v-4.9h1.7
	v4.9h3.1v-4.9h1.6v4.9h0.7c1.8,0,3.3-1.4,3.4-3.3V77.8h30.5V39.4H25z M76.5,53.1h-4.7V54h4.7v1h-4.7v0.9h4.7v1h-4.7v0.9h4.7v1h-4.7
	v0.9h4.7v1h-4.7v0.9h4.7v1h-4.7v0.9h4.7v1h-4.7v0.9h4.7v1h-4.7V67h4.7v1h-4.7c-0.1,0.8-0.7,1.4-1.5,1.5v4.7h-1v-4.7h-0.8v4.7h-1
	v-4.7h-0.9v4.7h-1v-4.7h-0.9v4.7h-1v-4.7h-0.9v4.7h-1v-4.7H61v4.7h-1v-4.7h-0.9v4.7h-1v-4.7h-0.9v4.7h-1v-4.7h-0.9v4.7h-1v-4.7
	c-0.8-0.1-1.3-0.7-1.5-1.5h-4.7v-1h4.7v-0.9h-4.7v-1h4.7v-0.9h-4.7v-1h4.7v-0.9h-4.7v-1h4.7v-0.9h-4.7v-1h4.7v-0.9h-4.7v-1h4.7v-0.9
	h-4.7v-1h4.7V55h-4.7v-1h4.7v-0.9h-4.7v-1h4.7c0.1-0.8,0.7-1.4,1.5-1.5v-4.7h1v4.7h0.9v-4.6h1v4.7h0.9v-4.7h1v4.7H60v-4.7h1v4.7h0.9
	v-4.7h1v4.7h0.9v-4.7h1v4.7h0.9v-4.7h1v4.7h0.9v-4.7h1v4.7h0.9v-4.7h1v4.7c0.8,0.1,1.4,0.7,1.5,1.5h4.7L76.5,53.1z M103,63.4
	c0,1-0.3,1.3-1.2,1.3c-3.2,0-6.3,0-9.5,0c-0.3,0-0.5-0.1-0.8-0.1c0-0.4,0-0.8,0-1.2c0-3.1,0-6.2,0-9.3c0-1,0.2-1.5,1.3-1.4
	c2.8,0.1,5.7,0,8.6-0.1c1.4-0.1,1.8,0.6,1.8,1.8C103,57.4,103,60.4,103,63.4z"/>
</svg>
