<?xml version="1.0" encoding="utf-8"?>
<!-- Generator: Adobe Illustrator 23.0.0, SVG Export Plug-In . SVG Version: 6.00 Build 0)  -->
<svg version="1.1" id="Pantalla_3" xmlns="http://www.w3.org/2000/svg" xmlns:xlink="http://www.w3.org/1999/xlink" x="0px" y="0px"
	 viewBox="0 0 126.6 126.6" style="enable-background:new 0 0 126.6 126.6;" xml:space="preserve">
<style type="text/css">
	.st0{fill:#000000;}
	.st1{fill:#FFFFFF;}
</style>
<title>Categoria</title>
<circle class="st0" cx="63.3" cy="63.3" r="63.3"/>
<path class="st1" d="M108.1,35.9c0-5.2-3.5-8.6-8.7-8.7c-4.2-0.1-8.3,0-12.5,0l-47.6,0.1l-3.7,0.1c-3.2-0.5-6.4-0.1-9.6,0
	c-1.7-0.1-3.3,0.7-4.2,2.1c-2.7,1.8-3.1,4.5-3.1,7.4c0,15.2,0,30.4,0,45.5c-0.2,0.9,0,1.8,0.4,2.6c0,1.3,0.5,2.6,1.5,3.6
	c1.8,2.3,4.5,3.5,7.4,3.4c7.9,0,15.8,0.1,23.7,0c2.3,0,2.7,0.6,2.8,2.8c0.1,2.7-0.5,3.7-3.4,3.5c-4.1-0.3-8.2,0-12.2-0.1
	c-1.4,0-1.8,0.5-1.8,1.8s0.1,2,1.8,2c16.4-0.1,32.8-0.1,49.3,0c1.7,0,1.8-0.7,1.8-2.1s-0.5-1.8-1.8-1.8c-4.3,0-8.7-0.1-13,0.1
	c-2.2,0.1-2.8-0.6-2.6-2.7c0.2-1.7-0.7-3.7,2.5-3.6C83,92.2,91,92.1,99.1,92c5.4,0,9-3.7,9-9C108.1,67.3,108.1,51.6,108.1,35.9z
	 M97.8,85c-23-0.1-45.9,0-68.9,0c-3.3,0-3.4-0.1-3.4-3.5c0-12.5-0.1-25-0.1-37.5h-0.1c0,0,0,0,0.1-0.1c0-1.3,0-2.5,0-3.8
	c0,0,0,0,0-0.1c0-0.1,0-0.1,0-0.2c0.4-5.4,0.4-5.4,5.8-5.7H35l61,0.1c5.4,0,5-0.5,5,5c0,14.1-0.1,28.2,0,42.3
	C101.1,84.2,100.4,85,97.8,85z"/>
</svg>
