<?xml version="1.0" encoding="utf-8"?>
<!-- Generator: Adobe Illustrator 23.0.0, SVG Export Plug-In . SVG Version: 6.00 Build 0)  -->
<svg version="1.1" id="Pantalla_3" xmlns="http://www.w3.org/2000/svg" xmlns:xlink="http://www.w3.org/1999/xlink" x="0px" y="0px"
	 viewBox="0 0 126.6 126.6" style="enable-background:new 0 0 126.6 126.6;" xml:space="preserve">
<style type="text/css">
	.st0{fill:#00000;}
	.st1{fill:#FFFFFF;}
</style>
<title>Categoria</title>
<circle class="st0" cx="63.3" cy="63.3" r="63.3"/>
<path class="st1" d="M103.3,88c-3.7-3.7-7.3-7.3-11-11C85.5,70.2,78.8,63.4,72,56.7c-5.2-5.2-10.4-10.3-15.6-15.5
	c-4.3-4.7-8.8-9.2-13.5-13.5c-0.4-0.6-0.9-1.1-1.4-1.5c-1.4-1.2-2.3-3.6-4-3.6s-2.7,2.6-4.3,3.7l-3.3,3.5c-2,0.9-1.6,2.6-1.2,4.1
	c0.3,1-0.1,2-1,2.5c-1.1,0.8-1.4-0.3-1.9-0.8c-0.7-0.7-1.1-0.7-1.9-0.1c-1.9,1.5-0.7,2.3,0.5,3.2c1,2-1.2,2.2-1.9,3.4
	c0.6,1.2,1.8,1.9,2.8,2.8c0.1,0,0.1-0.1,0.2-0.1c1.2-0.6,2.1-3,3.2-2c1.6,1.3-0.8,2.2-1.4,3.2c-0.3,0.4-0.3,1.1,0.2,1.4
	c0.4,0.4,0.9,0.6,1.4,0.1s1.1-1.2,1.7-1.7c0.3-0.4,1-0.5,1.4-0.2c0.1,0.1,0.1,0.1,0.2,0.2c0.6,0.6,0.5,1.1-0.1,1.6s-1.1,0.9-1.6,1.4
	c-0.8,0.7-0.4,1.1,0.2,1.8s1,0.2,1.5-0.1c1-0.6,1.3-3.1,2.9-1.6s-0.9,2-1.7,2.9c-0.5,0.7-0.5,1,0,1.5s0.9,0.8,1.5,0.2
	s1.4-1.5,2.2-2.3c1.5,0.7,1.8,1.5,0.4,2.6c-0.4,0.4-0.8,0.7-1.1,1.1c-0.7,0.7-0.2,1.1,0.2,1.6c0.6,0.8,1,0.1,1.5-0.3
	c0.7-0.7,1.5-1.3,2.2-1.9c2.3,1.4,0,2-0.5,3c-0.3,0.6-1.5,0.8-0.5,1.8c0.9,0.8,1.4,0.1,2-0.3c0.3-0.3,0.7-0.6,1-0.9
	c0.4-0.4,0.8-0.9,1.5-0.2s0.3,1.1-0.3,1.6c-0.4,0.4-0.7,0.8-1,1.2c-0.3,0.4-1.2,0.7-0.3,1.4c0.4,0.5,1.2,0.6,1.7,0.1
	c0,0,0,0,0.1-0.1c0.9-0.6,1.2-2.1,2.7-1.7c1.2,1.9-0.7,2.4-1.5,3.3c-0.5,0.6-0.6,1,0,1.5s0.9,0.8,1.5,0.1s1.1-1.2,1.7-1.8
	s1-0.3,1.6,0.1c0.7,0.6,0.4,1-0.1,1.5s-1.1,1-1.6,1.4c-0.4,0.2-0.6,0.8-0.4,1.3c0.1,0.1,0.2,0.2,0.3,0.3c0.4,0.5,1.1,0.6,1.6,0.2
	c0,0,0,0,0,0c1-0.6,1.4-3.4,3-1.6c1.2,1.3-1,2-1.8,2.9c-0.4,0.5-0.6,0.9,0,1.3s0.8,1.2,1.5,0.4c0.6-0.5,1.2-1.1,1.7-1.7
	c0.7-0.9,1.1-0.4,1.8,0.1c1,0.8,0,0.9-0.3,1.3c-0.4,0.5-0.8,1-1.3,1.4c-0.5,0.4-0.6,1.1-0.3,1.6c0.1,0.1,0.2,0.2,0.3,0.3
	c0.7,0.7,1-0.2,1.5-0.4c0.9-0.4,1.5-2.4,2.7-1.2c1.4,1.3-0.8,1.8-1.3,2.8c-0.2,0.5-1.1,0.8-0.4,1.5c0.5,0.6,1.2,0.8,1.8,0.1
	c0.3-0.4,0.6-0.7,1-0.9c0.5-0.3,0.8-1.6,1.9-0.6c1.3,1.2-0.4,1.3-0.6,1.9c-0.2,0.9-2.4,1.1-0.9,2.5c1.3,1.1,1.7-0.5,2.5-1
	c0.2-0.1,0.3-0.2,0.4-0.3c0.4-0.5,0.7-1,1.4-0.3c0.7,0.7,0.7,1.2,0,1.8s-1,1-1.6,1.5c-0.7,0.6-0.2,1.1,0.2,1.6c0.5,0.7,1,0.6,1.5,0
	s1-1.1,1.4-1.6c0.3-0.4,0.9-0.6,1.3-0.3c0.1,0.1,0.2,0.2,0.3,0.3c0.8,0.7,0.5,1.2-0.2,1.7s-1,0.8-1.4,1.2c-0.5,0.2-0.6,0.8-0.4,1.3
	c0.1,0.1,0.1,0.2,0.3,0.3c0.6,0.7,1.2,0.7,1.8,0c0.2-0.3,0.5-0.5,0.8-0.8c0.6-0.5,0.9-2.1,2.2-0.8s-0.4,1.6-0.8,2.3
	c-0.2,0.3-0.5,0.5-0.8,0.7c-1,0.7-0.3,1.1,0.1,1.7c0.7,0.8,1,0.1,1.5-0.2c0.9-0.6,1.5-2.7,2.8-1.5s-0.8,1.9-1.3,2.8
	c-0.5,0.5-0.4,1.4,0.2,1.8c0.5,0.6,0.8,0,1.3-0.2c1.1-0.3,1.4-3,3-1.3c1.1,1.2-0.9,1.8-1.4,2.8c-0.3,0.6-0.9,0.9-0.1,1.6
	c0.6,0.4,0.9,0.3,1.6,0c1-0.4,1.4-3.1,3-1.3c1.2,1.3-1,1.8-1.6,2.7c-0.4,0.6-0.8,0.9,0,1.5c0.5,0.4,0.9,0.9,1.5,0.1s1.1-1.1,1.7-1.7
	c0.4-0.4,0.8-0.9,1.2-0.1c0.2,0.4,0.9,0.7,0.4,1.3s-1,1-1.5,1.5s-1.2,1-0.3,1.9s1.2,0.3,1.8-0.3s1.4-2.8,2.8-1.2
	c1.1,1.2-0.8,1.6-1.3,2.3c-0.1,0.1-0.2,0.3-0.4,0.4c-0.5,0.4-0.8,0.8-0.2,1.5s1.2,1,1.7,0.1c1.2-1.9,2.3-1.6,3.5,0
	c0.8,1.1,1.6,1,2.2,0c0.5-0.8,2.4-1.2,0.7-2.7c-0.4-0.4-1.5-0.7-0.7-1.7c0.7-0.8,1.6-1.2,2.4-0.4c1.2,1.1,2,0.5,2.8-0.3
	c2.6-2.6,5.2-5.2,7.8-7.8C104.7,89.4,104,88.7,103.3,88z M36,25.9c1-1.2,1.9-1,2.8,0.1l0.1,0.1c-0.1,0.8-0.4,1.5-1.4,1.6
	c-1.3,0.1-1.2-1-1.7-1.6L36,25.9z M46.4,50.8L46.1,51c-0.2,0.1-0.4,0.1-0.5,0.3c-1.2,1.9-2.5,1.8-3.9,0.2l0,0
	c-1.8-1.9-3.7-3.8-5.5-5.6l-0.3-0.3c-0.1-0.4-0.5-0.7-0.6-1c-0.1-0.2-0.1-0.4,0-0.6c2.5-2.5,5.1-4.9,7.5-7.5c1.2-1.3,1.7-0.9,2.6,0
	c2,2,4,4,6.1,6l0,0l0.3,0.3l0.1,0.1l0.2,0.2l0,0l0.2,0.2c0.7,0.8,0.3,1.4-0.4,2.2C49.9,47.1,48.1,48.9,46.4,50.8z M63.4,57.1
	c-2.4,2.2-4.6,4.5-6.8,6.8c-1.1,1.2-1.6,0.9-2.6-0.2c-1.7-1.9-3.6-3.5-5.4-5.2l-0.3-0.2c-2-1.6-1.6-3,0.5-4.5
	c0.6-0.5,1.1-1.1,1.6-1.8l0.1-0.1c1.7-1.3,3.3-2.9,4.7-4.6l0.1-0.1c1.1-0.2,1.5,0.6,2.1,1.2c0.2,0.2,0.3,0.3,0.5,0.4
	c1.8,1.9,3.5,3.8,5.4,5.5C64.3,55.3,64.7,55.9,63.4,57.1L63.4,57.1z M74.8,82.6c-0.8,0.8-1.3,0.7-2,0c-2.4-2.4-4.8-4.8-7.2-7.2
	c-0.4-0.4-1-0.7-0.3-1.5c2.7-2.6,5.3-5.3,8-7.9c0.3-0.2,0.6-0.4,0.9-0.6c0.4,0.3,0.8,0.6,1.1,0.9c2.1,2.2,4.2,4.4,6.4,6.5
	c1.2,1.1,1.1,1.8,0.1,2.8C79.4,77.9,77.1,80.2,74.8,82.6z M92.9,86.7c-2.4,2.3-4.7,4.6-7,7c-0.8,0.8-1.2,0.8-1.9,0.1
	c-2.4-2.5-4.9-4.9-7.4-7.4c-0.2-0.2-0.4-0.5-0.5-0.7l0.9-1c2.4-2.4,4.8-4.8,7.2-7.3c0.7-0.8,1.3-1,2.2-0.1c2.2,2.3,4.4,4.5,6.7,6.6
	C94.2,85,93.9,85.8,92.9,86.7z M99.9,90.5c-0.9,0-1.2-0.6-1.1-1.4c0.1-0.7,0.6-1.3,1.4-1.3c0.7,0.3,1.3,0.7,1.2,1.6
	c0,0.7-0.5,1.2-1.2,1.2C100.1,90.5,100,90.5,99.9,90.5L99.9,90.5z"/>
</svg>
