<?xml version="1.0" encoding="utf-8"?>
<!-- Generator: Adobe Illustrator 23.0.0, SVG Export Plug-In . SVG Version: 6.00 Build 0)  -->
<svg version="1.1" id="Pantalla_3" xmlns="http://www.w3.org/2000/svg" xmlns:xlink="http://www.w3.org/1999/xlink" x="0px" y="0px"
	 viewBox="0 0 126.6 126.6" style="enable-background:new 0 0 126.6 126.6;" xml:space="preserve">
<style type="text/css">
	.st0{fill:#000000;}
	.st1{fill:#FFFFFF;}
</style>
<title>Categoria</title>
<circle class="st0" cx="63.3" cy="63.3" r="63.3"/>
<path class="st1" d="M102,95.3c0-19.2,0-38.3-0.1-57.5v-0.4c0-2.5,0-4.9,0-7.4c0-3.7-1.6-5.3-5.2-5.3s-7.3,0-11,0H75.5h-4.1
	c-14,0-28.1,0-42.1,0c-3.6,0-4.8,1.4-4.8,5c0,22.4,0,44.8,0,67.2c0,3.7,1.4,5.2,5,5.2c22.6,0,45.1,0,67.7,0c2.1,0.1,4-1.3,4.5-3.3
	C102.5,97.7,102,96.4,102,95.3z M86.2,79.8c-6.9,9.6-19.2,13.9-30.6,10.7c-8.9-2.2-16.1-8.8-19.1-17.4c-4.8-12.5,0-26.7,11.4-33.8
	c7.3-4.7,15.2-5.3,23.4-3.4l1,0.4l2.8,1.2l0.9,0.4c7.4,3.9,12.8,10.8,14.9,18.9c0,0.1,0,0.2,0,0.3c0.1,0.9,0.3,1.7,0.4,2.6v0.2
	C91.9,67.1,90.6,73.8,86.2,79.8z"/>
<path class="st1" d="M83.1,70.3c-1.7,1.9-3.9,1.7-6.2,1c-2.3-0.8-4.4-1.8-6.4-3.1c-0.4-0.2-0.8-1.1-1.4-0.3s0.1,1.2,0.5,1.6
	c2.2,1.8,3.9,4.1,4.8,6.8c2.1,5.4-0.1,9.2-5.9,10c-0.7,0.1-1.3,0.1-2,0.1c-5.2,0-7.2-1.9-7.2-6.6c0.1-2,0.3-4,0.7-6
	c0.1-0.7,1.1-1.7-0.2-2.1c-1-0.3-1,0.9-1.3,1.5c-1.3,2.9-3.4,5.3-6.1,7c-3.1,2-5.6,1.9-8.2-0.8c-1.9-2.1-3.1-4.7-3.4-7.5
	c-0.4-2.5,1.6-5,4.3-5.8c2.3-0.8,4.6-1.2,7-1.2c0.6,0,1.5,0.2,1.5-0.9s-0.9-1-1.5-1c-3.8,0-7.4-1.6-10-4.4c-2.2-2.4-2.4-4.3-0.7-7.2
	c1.2-2,2.8-3.6,4.8-4.8c3.9-2.5,7.1-0.6,9.8,4c0.8,1.3,1.2,2.8,1.8,4.2c0.2,0.4,0.1,1.3,1.1,1.1s0.7-1,0.6-1.6
	c-0.7-3-0.6-6.1,0.2-9.1c1.2-4.4,4.5-6.2,8.7-4.7c0.2,0.1,0.5,0.2,0.7,0.3c7.8,3.6,8.4,8.8,1.7,14.5c-1,0.8-3,1.7-2.3,2.8
	c1,1.6,2.2-0.5,3.2-1c2.9-1.2,6.1-1.5,9.2-1.1c2.2,0.1,4.1,1.7,4.5,3.9C86.5,63.5,85.6,67.4,83.1,70.3z"/>
</svg>
