<?xml version="1.0" encoding="utf-8"?>
<!-- Generator: Adobe Illustrator 23.0.0, SVG Export Plug-In . SVG Version: 6.00 Build 0)  -->
<svg version="1.1" id="Pantalla_3" xmlns="http://www.w3.org/2000/svg" xmlns:xlink="http://www.w3.org/1999/xlink" x="0px" y="0px"
	 viewBox="0 0 126.6 126.6" style="enable-background:new 0 0 126.6 126.6;" xml:space="preserve">
<style type="text/css">
	.st0{fill:#000000;}
	.st1{fill:#FFFFFF;}
</style>
<title>Categoria</title>
<circle class="st0" cx="63.3" cy="63.3" r="63.3"/>
<path class="st1" d="M97.8,82.8c0,0.8,0,1.4-1.1,1.4s-1.2-0.6-1.2-1.4c0-5.5,0-11,0-16.5c0-0.7,0-1.3,1-1.2s1.3,0.2,1.3,1.3
	c-0.1,2.8,0,5.7,0,8.5C97.8,77.5,97.8,80.2,97.8,82.8z"/>
<path class="st1" d="M108.3,33.5c0-1.1-0.3-1.6-1.5-1.6c-9.4,0-18.8,0-28.2,0c-0.6,0-1.5-0.1-1.4,0.9c0.3,2.2-1.2,1.7-2.3,1.7
	c-7.5,0-15,0-22.6,0c-1.4,0-3.1,0.6-3-2c0-1.1-1.2-0.7-1.8-0.7c-9,0-18.1,0-27.1,0c-1.6,0-2.1,0.4-2.1,2.1c0.1,6.3,0.1,12.7,0,19.1
	c0,1.4-0.1,2.5,1.9,2.2c1.3-0.2,1.1,1,1.1,1.8c0,4.1,0,8.2,0,12.3c0,1.2-0.2,2-1.6,1.7c-1.2-0.2-1.4,0.4-1.4,1.5
	c0,6.1,0,12.2,0,18.3c0,1.1,0.3,1.5,1.4,1.4c5.3-0.1,10.5-0.1,15.8-0.1H39h13.1h7c3.7,0,7.4,0,11,0.2c1.4,0.1,3.8-1.3,3.6,2
	c0,0.1,0.6,0.4,0.8,0.3c1.3-0.3,3.4,1.1,3.3-1.8c0-0.6,0.7-0.6,1.2-0.6c1.2,0,2.3,0,3.5,0c1,0,1.5,0.2,1.5,1.4c0,1.8,1.4,0.9,2.2,1
	s2,0.5,1.9-1.1s1.1-1.4,1.8-1.2c1.2,0.4,3.2-1.4,3.7,1.1c0.2,0.9,0.4,1.2,1.2,1.1s2.6,0.5,2.7-0.4c0.2-2.5,1.9-1.8,3.2-1.8
	c2,0,4-0.1,6,0c1.3,0.1,1.5-0.4,1.5-1.6C108.3,71.7,108.3,52.6,108.3,33.5z M21.1,89.7c-0.5,0.1-1-0.3-1.1-0.8
	c-0.1-0.6,0.4-1.1,1-1.2c0.7,0,1,0.5,1,1.1S21.7,89.7,21.1,89.7z M21.1,35.8c-0.7-0.2-1.2-0.6-1.1-1.3c0.1-0.6,0.6-1.1,1.2-1
	c0.7,0,0.9,0.6,0.9,1.2S21.9,35.8,21.1,35.8L21.1,35.8z M28.5,39.3c10.2,0,20.4,0,30.6,0c1.7,0,2.5,0.2,2.4,2.3
	c-0.2,4.4,0,4.4-4.4,4.4H42.8c-5.6,0-11.2-0.1-16.8,0c-1.7,0-2.1-0.5-2-2.1C24,39.3,23.9,39.3,28.5,39.3L28.5,39.3z M36.6,89.2
	C36.6,89.2,36.6,89.2,36.6,89.2L36.6,89.2h-3.1H33c-2.1,0-4.2-0.2-6.3-0.1c-1.8,0.1-2.5-0.3-2.4-2.3c0.2-2.8,0-5.7,0-8.5
	c0-3.6,0-3.6,3.6-3.8H31c2,0,4,0.2,6,0.1c1.4-0.1,1.8,0.3,1.8,1.8c-0.1,3.5-0.1,7,0.1,10.4C38.9,88.6,38.3,89.3,36.6,89.2z
	 M58.9,84.8c-1,1.1-2.8,1.2-3.9,0.2c0,0-0.1-0.1-0.1-0.1c-0.1-0.1-0.2-0.2-0.3-0.3c-0.8-1-1-2.4-0.5-3.6l0.1-0.1
	c0.7-0.9,1.7-1.4,2.8-1.5c0.2,0,0.5,0,0.7,0l1.1,0.5l0.3,0.4l0,0C60.1,81.9,60.4,83.4,58.9,84.8z M54,73.2c0.9-1.9,2.8-2.2,5.1-0.8
	l0.3,0.2c1,2.3,0.2,3.9-1.8,5l-0.5-0.1C54.4,77.1,53,75.3,54,73.2z M59,68.5l-0.3,0.2c-1.4,0.9-2.9,1-4.1-0.4c-1.4-1.5-1-3,0.1-4.3
	c0.1-0.2,0.3-0.3,0.4-0.5c1.4-0.9,3.2-0.5,4.1,0.9C60.3,65.9,60,67.2,59,68.5L59,68.5z M61,58.5c-1.4,0-2.8,0-4.3,0L41,58.4h-6.1
	h-7.7H24c0-2.1,0-4.2,0-6.3L43.1,52l0,0l17.2-0.1c0.4,0,0.8,0.1,1.1,0.4l0,0c0.1,0.1,0.1,0.1,0.2,0.2c-0.5,2,0.3,4.1-0.4,6L61,58.5z
	 M71.4,86.5c-3.2,0.3-4.8,0.5-5.7-0.1S65,84.2,65,80.8c0-2.2,0-4.3,0-6.5l0,0c0-4.1,0-8.2,0.1-12.3h6l0,0l0,0l0.1,0.1l0.1-0.1
	c0.5,3.8,0,7.7,0.3,11.5c0,1.7,0,3.4,0.1,5.1l0,0c0,0.2,0,0.3,0,0.5c0,2.5,0,4.9-0.1,7.4L71.4,86.5z M70,55L70,55l-1.3,0
	c-1.4,0.1-1.6-0.4-1.6-1.7v-1.2l0,0c0.1-3.1,0-6.2,0.1-9.3c3.5,0,7,0,10.5-0.1c1.2,0,1.6,0.3,1.5,1.5c-0.1,3.5,0,7-0.1,10.5
	C76.1,55,73,54.9,70,55z M81.1,84.7c0,1.6-0.3,2.2-2,2.1c-4.4-0.1-4.4,0-4.4-4.5c0-1.9-0.1-3.7-0.1-5.6h-0.2l0.2-0.1v-3.6
	c0-2.8,0-5.7,0-8.5c0.4-0.7-0.2-1.7,0.3-2.4c0.1-0.1,0.2-0.2,0.3-0.2c1.9,0.5,4.6-0.9,5.6,0.7c0.9,1.4,0.3,3.9,0.3,5.9
	C81.1,73.9,81.1,79.3,81.1,84.7z M84.2,44.1c0-3.2,0.2-2.7,3.2-3c1.6-0.2,3.3,0.8,5-0.3c0.6-0.4,2.3,1,3.5-0.2
	c1.3,1.8,3.2-0.9,4.8,0.6c0.3,0.3,1.9-0.9,3.1,0.1c1.6,1.4,0.6,3.1,0.5,4.6c0,0.6-1.5,1.5-2.8,0.8s-2.9-0.1-4.1,0
	c-2.6,0.2-5.2-0.5-7.9,0.2c-1,0.3-2.3-0.1-3.6,0C84.3,47,84,45.4,84.2,44.1z M88.4,86.8c-4.2-0.1-4.2,0-4.2-4.1c0-2.8,0-5.5,0-8.3
	c0-3.6,0.1-7.2,0-10.8c0-1.3,0.3-1.7,1.6-1.7c4.8-0.1,4.8-0.2,4.8,4.6c0,6-0.1,12,0,18C90.7,86.3,90.2,86.9,88.4,86.8z M97.8,86.8
	c-4.1-0.1-4.1,0-4.1-4v-8.5l0,0c0-3.5,0.1-7,0-10.5c0-1.3,0.3-1.8,1.7-1.8c4.7,0,4.7-0.1,4.7,4.5c0,6-0.1,12,0,18
	C100.2,86.3,99.7,86.9,97.8,86.8L97.8,86.8z M101.1,56.4c-1.5,0.1-3.3-1.1-4.7,0.4c-0.4,0.4-0.8,0.3-1.2-0.2c-0.3-0.5-1-0.7-1.5-0.4
	c-0.1,0.1-0.3,0.2-0.4,0.4c-0.5,0.7-1,0.6-1.4,0.1c-0.6-0.8-1.2-0.8-1.8-0.1s-1.1,0.7-1.6-0.1c-0.2-0.4-0.8-0.6-1.2-0.3
	c-0.1,0.1-0.2,0.1-0.3,0.2c-0.9,1.3-1.5,0.3-2.2-0.2c-1.6-1.3-0.7-3.1-0.5-4.5c0.1-0.7,1.7-0.8,2.8-0.9c1.6-0.2,3.2,0.6,4.9,0
	c1.3-0.4,2.7-0.4,4,0c1.8,0.8,3.4-1,4.9,0.3c0.4,0.4,0.9-1,1.9-0.5c1.4,0.7,2,1.6,1.7,2.9C104.7,56.4,104.1,56.1,101.1,56.4
	L101.1,56.4z M105.5,90c-0.5-0.1-0.8-0.5-0.8-1.1s0.2-0.9,0.8-0.9c0.6,0,1.1,0.4,1.2,1C106.5,89.6,106.1,90.1,105.5,90z M105.8,35.7
	c-0.7,0.2-1.1-0.3-1.1-0.9s0-1.2,0.7-1.3c0.7-0.1,1.3,0.3,1.5,1C106.8,35.1,106.4,35.6,105.8,35.7L105.8,35.7z"/>
<path class="st1" d="M37,82.9c-0.6,1.4-1.8,0.7-3,0.7c0.1,1,1,2,0.5,3c-2.6,1.7-3.5,1.3-4-1.9c-1,0.7-1.9,2.1-3.4,1.2
	c-0.8-0.5-1.3-1.4-1.1-2.3c0.3-1.4,1.6-1.4,2.7-1.7c-1.1-0.6-2.7-0.7-2.8-2.4c0-1.2,0.9-1.7,1.9-2.1c1.6-0.6,1.7,1.2,2.6,1.8
	c0.3-0.9,0.1-2,1-2.6c1.2-1.2,2.2-0.4,3,0.4c1.1,1.2-0.3,2-0.7,3.1c1.2,0.1,2.5-0.9,3.5,0.5C37.5,81.3,37.5,82.2,37,82.9z"/>
<path class="st1" d="M88.3,82.6c0,0.7,0.2,1.5-1,1.6s-1.2-0.8-1.2-1.6c0-5.3,0-10.5,0-15.8c0-0.8-0.3-1.7,1.1-1.7s1,1,1,1.8
	c0,2.6,0,5.2,0,7.8S88.3,80,88.3,82.6z"/>
<path class="st1" d="M69.5,82.8c0,1-0.2,1.5-1.4,1.5c-1.4,0-0.9-0.9-0.9-1.5c0-2.9,0-5.8,0.1-8.7c0-2.6,0-5.1-0.1-7.7
	c0-0.9,0.2-1.4,1.2-1.3s1,0.7,1,1.3c0,2.6-0.1,5.1-0.1,7.7C69.3,77,69.4,79.9,69.5,82.8z"/>
<path class="st1" d="M78.7,72.6c0,3.5,0,7,0.1,10.4c0,0.8-0.2,1.2-1.1,1.2s-1.2-0.3-1.1-1.2c0.1-3,0.1-6,0.2-9
	c-0.3-2.5-0.4-4.9-0.2-7.4c0.1-0.8,0.1-1.7,1.3-1.6s0.9,0.9,0.9,1.6C78.8,68.6,78.8,70.6,78.7,72.6z"/>
<path class="st1" d="M72.5,51.9c-2.5,0.2-2.3-1.2-2.3-2.8c0-2-0.1-3.4,2.7-3.2c2.3,0.2,3.4,0.6,2.7,3.1C76.5,52,74.6,51.8,72.5,51.9
	z"/>
</svg>
